<svg width="104" height="104" viewBox="0 0 104 104" fill="none" xmlns="http://www.w3.org/2000/svg">
<path fill-rule="evenodd" clip-rule="evenodd" d="M7.14375 0C5.24911 0 3.43207 0.752643 2.09236 2.09236C0.752643 3.43207 0 5.24911 0 7.14375V96.0437C0 99.9913 3.19617 103.188 7.14375 103.188H96.0437C96.9819 103.188 97.9108 103.003 98.7775 102.644C99.6443 102.285 100.432 101.758 101.095 101.095C101.758 100.432 102.285 99.6443 102.644 98.7775C103.003 97.9108 103.188 96.9819 103.188 96.0437V7.14375C103.188 6.20562 103.003 5.27667 102.644 4.40996C102.285 3.54324 101.758 2.75571 101.095 2.09236C100.432 1.429 99.6443 0.902793 98.7775 0.543786C97.9108 0.184779 96.9819 0 96.0437 0H7.14375ZM55.5625 17.1979C55.5625 16.1453 55.1444 15.1359 54.4001 14.3916C53.6558 13.6473 52.6463 13.2292 51.5938 13.2292C50.5412 13.2292 49.5317 13.6473 48.7874 14.3916C48.0431 15.1359 47.625 16.1453 47.625 17.1979V23.0346C44.8998 23.4421 42.2275 24.384 39.968 26.0985C36.4067 28.7972 34.3958 32.983 34.3958 38.3646C34.3958 40.984 35.0044 43.3176 36.2056 45.3284C37.3962 47.3181 39.0313 48.7839 40.7829 49.9004C44.0214 51.9642 48.1542 53.086 51.5726 54.0173L51.8742 54.102C55.6789 55.1392 58.6687 55.9911 60.7907 57.3405C61.7696 57.9649 62.4046 58.6052 62.8121 59.2825C63.1984 59.9334 63.5 60.8277 63.5 62.1771C63.5 65.405 62.2035 67.4264 60.3038 68.7546C58.2401 70.1992 55.1974 70.9877 51.7313 70.866C46.4397 70.6702 41.3861 68.4107 38.8937 65.0875C38.581 64.6706 38.1893 64.3193 37.7408 64.0537C37.2923 63.7882 36.796 63.6136 36.28 63.5399C35.7641 63.4662 35.2387 63.4948 34.7338 63.6242C34.2289 63.7535 33.7544 63.981 33.3375 64.2937C32.9206 64.6065 32.5693 64.9982 32.3037 65.4467C32.0382 65.8952 31.8636 66.3915 31.7899 66.9075C31.7162 67.4234 31.7448 67.9488 31.8742 68.4537C32.0035 68.9586 32.231 69.4331 32.5437 69.85C36.0892 74.5755 41.8412 77.3906 47.625 78.396V85.9896C47.625 87.0422 48.0431 88.0516 48.7874 88.7959C49.5317 89.5402 50.5412 89.9583 51.5938 89.9583C52.6463 89.9583 53.6558 89.5402 54.4001 88.7959C55.1444 88.0516 55.5625 87.0422 55.5625 85.9896V78.6289C58.8857 78.232 62.1347 77.1684 64.8547 75.2581C68.8605 72.4535 71.4375 68.0085 71.4375 62.1771C71.4375 59.5577 70.829 57.2241 69.6277 55.2132C68.4833 53.3501 66.9149 51.7836 65.0505 50.6412C61.812 48.5775 57.6792 47.4557 54.2607 46.5243L53.9591 46.4397C50.1544 45.4025 47.1646 44.5505 45.0427 43.2012C44.225 42.7225 43.5323 42.057 43.0212 41.2591C42.5279 40.3767 42.2898 39.3746 42.3333 38.3646C42.3333 35.1155 43.4446 33.4169 44.7569 32.4273C46.2386 31.3055 48.5457 30.6546 51.4879 30.734C56.5097 30.8716 61.8649 33.0835 64.6642 35.8775C65.0275 36.2674 65.4657 36.5802 65.9525 36.7971C66.4393 37.014 66.9648 37.1306 67.4977 37.14C68.0306 37.1495 68.5599 37.0514 69.0541 36.8518C69.5483 36.6522 69.9972 36.3551 70.3741 35.9782C70.7509 35.6014 71.048 35.1525 71.2477 34.6583C71.4473 34.1641 71.5453 33.6348 71.5359 33.1019C71.5265 32.569 71.4098 32.0435 71.1929 31.5567C70.976 31.0698 70.6633 30.6317 70.2733 30.2683C66.6644 26.6541 61.1135 24.1141 55.5625 23.1775V17.1979Z" fill="#47B258"/>
</svg>
