<svg width="1440" height="186" viewBox="0 0 1440 186" fill="none" xmlns="http://www.w3.org/2000/svg">
<path fill-rule="evenodd" clip-rule="evenodd" d="M1440 186L1380 157.238C1320 128.476 1200 70.9524 1080 63.7619C960 56.5714 840 99.7143 720 92.5238C600 85.3333 480 27.8095 360 27.8095C240 27.8095 120 85.3333 60 114.095L3.77167e-06 142.857L1.62606e-05 -3.81849e-06L60 1.42688e-06C120 6.67225e-06 240 1.7163e-05 360 2.76537e-05C480 3.81444e-05 600 4.86352e-05 720 5.91259e-05C840 6.96166e-05 960 8.01074e-05 1080 9.05981e-05C1200 0.000101089 1320 0.00011158 1380 0.000116825L1440 0.00012207L1440 186Z" fill="#47B258"/>
</svg>
